<?xml version="1.0" encoding="utf-8"?>
<COLLADA xmlns="http://www.collada.org/2005/11/COLLADASchema" version="1.4.1" xmlns:xsi="http://www.w3.org/2001/XMLSchema-instance">
  <asset>
    <contributor>
      <author>Blender User</author>
      <authoring_tool>Blender 4.4.3 commit date:2025-04-29, commit time:14:09, hash:802179c51ccc</authoring_tool>
    </contributor>
    <created>2025-08-07T20:16:18</created>
    <modified>2025-08-07T20:16:18</modified>
    <unit name="meter" meter="1"/>
    <up_axis>Z_UP</up_axis>
  </asset>
  <library_cameras>
    <camera id="Camera-camera" name="Camera">
      <optics>
        <technique_common>
          <perspective>
            <xfov sid="xfov">39.59775</xfov>
            <aspect_ratio>1.777778</aspect_ratio>
            <znear sid="znear">0.1</znear>
            <zfar sid="zfar">100</zfar>
          </perspective>
        </technique_common>
      </optics>
      <extra>
        <technique profile="blender">
          <shiftx sid="shiftx" type="float">0</shiftx>
          <shifty sid="shifty" type="float">0</shifty>
          <dof_distance sid="dof_distance" type="float">10</dof_distance>
        </technique>
      </extra>
    </camera>
  </library_cameras>
  <library_effects>
    <effect id="TrafficCone-effect">
      <profile_COMMON>
        <technique sid="common">
          <lambert>
            <emission>
              <color sid="emission">0 0 0 1</color>
            </emission>
            <diffuse>
              <color sid="diffuse">0.9176471 0.5960784 0 1</color>
            </diffuse>
            <index_of_refraction>
              <float sid="ior">1.5</float>
            </index_of_refraction>
          </lambert>
        </technique>
      </profile_COMMON>
    </effect>
    <effect id="edge_color2341520255-effect">
      <profile_COMMON>
        <technique sid="common">
          <lambert>
            <emission>
              <color sid="emission">0 0 0 1</color>
            </emission>
            <diffuse>
              <color sid="diffuse">0 0 0 1</color>
            </diffuse>
            <index_of_refraction>
              <float sid="ior">1.5</float>
            </index_of_refraction>
          </lambert>
        </technique>
      </profile_COMMON>
    </effect>
    <effect id="edge_color000255-effect">
      <profile_COMMON>
        <technique sid="common">
          <lambert>
            <emission>
              <color sid="emission">0 0 0 1</color>
            </emission>
            <diffuse>
              <color sid="diffuse">0 0 0 1</color>
            </diffuse>
            <index_of_refraction>
              <float sid="ior">1.5</float>
            </index_of_refraction>
          </lambert>
        </technique>
      </profile_COMMON>
    </effect>
  </library_effects>
  <library_images/>
  <library_materials>
    <material id="TrafficCone-material" name="TrafficCone">
      <instance_effect url="#TrafficCone-effect"/>
    </material>
    <material id="edge_color2341520255-material" name="edge_color2341520255">
      <instance_effect url="#edge_color2341520255-effect"/>
    </material>
    <material id="edge_color000255-material" name="edge_color000255">
      <instance_effect url="#edge_color000255-effect"/>
    </material>
  </library_materials>
  <library_geometries>
    <geometry id="ID15-mesh" name="ID15">
      <mesh>
        <source id="ID15-mesh-positions">
          <float_array id="ID15-mesh-positions-array" count="216">11.17144 8.183082 0.25 7.259679 6.334266 18 11.39702 5.604741 0.25 7.223639 6.746199 18 7.223639 6.746199 18 11.17144 8.183082 0.25 7.259679 6.334266 18 11.39702 5.604741 0.25 11.39702 5.604741 0.25 11.17144 8.183082 0.25 7.223639 6.746199 18 7.259679 6.334266 18 6.986462 7.084923 18 9.686921 10.3032 0.25 9.686921 10.3032 0.25 6.986462 7.084923 18 9.686921 10.3032 0.25 6.986462 7.084923 18 7.084923 5.959502 18 10.3032 3.259044 0.25 7.084923 5.959502 18 10.3032 3.259044 0.25 10.3032 3.259044 0.25 7.084923 5.959502 18 6.611698 7.259679 18 7.341223 11.39702 0.25 6.611698 7.259679 18 7.341223 11.39702 0.25 7.341223 11.39702 0.25 6.611698 7.259679 18 8.183082 1.774519 0.25 6.746199 5.722324 18 6.746199 5.722324 18 8.183082 1.774519 0.25 6.746199 5.722324 18 8.183082 1.774519 0.25 6.199765 7.223639 18 4.762881 11.17144 0.25 6.199765 7.223639 18 4.762881 11.17144 0.25 4.762881 11.17144 0.25 6.199765 7.223639 18 5.604741 1.548943 0.25 6.334266 5.686285 18 6.334266 5.686285 18 5.604741 1.548943 0.25 6.334266 5.686285 18 5.604741 1.548943 0.25 5.86104 6.986462 18 2.642759 9.686921 0.25 5.86104 6.986462 18 2.642759 9.686921 0.25 2.642759 9.686921 0.25 5.86104 6.986462 18 3.259044 2.642759 0.25 5.959502 5.86104 18 5.959502 5.86104 18 3.259044 2.642759 0.25 5.959502 5.86104 18 3.259044 2.642759 0.25 1.548943 7.341223 0.25 5.686285 6.611698 18 1.548943 7.341223 0.25 5.686285 6.611698 18 5.686285 6.611698 18 1.548943 7.341223 0.25 1.774519 4.762881 0.25 5.722324 6.199765 18 5.722324 6.199765 18 1.774519 4.762881 0.25 5.722324 6.199765 18 1.774519 4.762881 0.25</float_array>
          <technique_common>
            <accessor source="#ID15-mesh-positions-array" count="72" stride="3">
              <param name="X" type="float"/>
              <param name="Y" type="float"/>
              <param name="Z" type="float"/>
            </accessor>
          </technique_common>
        </source>
        <source id="ID15-mesh-normals">
          <float_array id="ID15-mesh-normals-array" count="144">0.9144283 0.3328254 0.2303218 0.9583311 -0.1689778 0.2303218 0.9583309 -0.1689785 0.230322 0.9144286 0.3328244 0.230322 -0.9144287 -0.3328244 -0.2303221 -0.9144283 -0.3328254 -0.2303218 -0.9583311 0.1689778 -0.2303218 -0.9583309 0.1689785 -0.230322 0.6255112 0.7454445 0.2303221 0.6255067 0.7454484 0.2303218 -0.6255067 -0.7454484 -0.2303218 -0.6255111 -0.7454446 -0.2303221 0.7454484 -0.6255068 0.2303214 0.745449 -0.6255059 0.230322 -0.7454484 0.6255068 -0.2303214 -0.745449 0.6255059 -0.230322 0.168985 0.9583297 0.2303221 0.1689798 0.9583306 0.230322 -0.1689851 -0.9583297 -0.2303222 -0.1689798 -0.9583306 -0.230322 0.3328248 -0.9144285 0.230322 0.332822 -0.9144296 0.2303221 -0.3328222 0.9144295 -0.2303221 -0.3328248 0.9144285 -0.230322 -0.3328194 0.9144305 0.2303218 -0.3328247 0.9144286 0.2303218 0.3328193 -0.9144305 -0.2303218 0.3328246 -0.9144286 -0.2303218 -0.1689797 -0.9583307 0.2303221 -0.1689836 -0.9583302 0.2303215 0.1689836 0.9583302 -0.2303216 0.1689797 0.9583307 -0.2303221 -0.7454483 0.6255067 0.230322 -0.7454485 0.6255065 0.2303221 0.7454483 -0.6255067 -0.230322 0.7454485 -0.6255064 -0.230322 -0.625506 -0.7454488 0.2303221 -0.6255085 -0.7454469 0.2303218 0.6255086 0.7454468 -0.2303219 0.6255061 0.7454488 -0.2303221 -0.9583308 0.1689795 0.230322 -0.9583308 0.1689794 0.2303219 0.9583308 -0.1689795 -0.230322 0.9583307 -0.1689794 -0.230322 -0.9144285 -0.3328246 0.230322 -0.9144302 -0.3328204 0.2303221 0.9144302 0.3328204 -0.2303221 0.9144285 0.3328246 -0.230322</float_array>
          <technique_common>
            <accessor source="#ID15-mesh-normals-array" count="48" stride="3">
              <param name="X" type="float"/>
              <param name="Y" type="float"/>
              <param name="Z" type="float"/>
            </accessor>
          </technique_common>
        </source>
        <vertices id="ID15-mesh-vertices">
          <input semantic="POSITION" source="#ID15-mesh-positions"/>
        </vertices>
        <lines count="36">
          <input semantic="VERTEX" source="#ID15-mesh-vertices" offset="0"/>
          <p>9 8 10 11 16 9 17 10 8 22 11 23 29 17 28 16 23 34 22 35 41 29 40 28 34 46 35 47 53 41 52 40 46 58 47 59 64 53 65 52 58 70 59 71 70 64 71 65 10 9 11 8 16 17 23 22 29 28 34 35 41 40 46 47 53 52 58 59 64 65 70 71</p>
        </lines>
        <triangles material="TrafficCone-material" count="48">
          <input semantic="VERTEX" source="#ID15-mesh-vertices" offset="0"/>
          <input semantic="NORMAL" source="#ID15-mesh-normals" offset="1"/>
          <p>0 0 1 1 2 2 1 1 0 0 3 3 4 4 5 5 6 6 7 7 6 6 5 5 0 0 12 8 3 3 12 8 0 0 13 9 14 10 5 5 15 11 4 4 15 11 5 5 2 2 18 12 19 13 18 12 2 2 1 1 6 6 7 7 20 14 21 15 20 14 7 7 24 16 13 9 25 17 13 9 24 16 12 8 15 11 26 18 14 10 27 19 14 10 26 18 18 12 30 20 19 13 30 20 18 12 31 21 32 22 20 14 33 23 21 15 33 23 20 14 36 24 25 17 37 25 25 17 36 24 24 16 26 18 38 26 27 19 39 27 27 19 38 26 31 21 42 28 30 20 42 28 31 21 43 29 44 30 32 22 45 31 33 23 45 31 32 22 48 32 37 25 49 33 37 25 48 32 36 24 38 26 50 34 39 27 51 35 39 27 50 34 43 29 54 36 42 28 54 36 43 29 55 37 56 38 44 30 57 39 45 31 57 39 44 30 48 32 60 40 61 41 60 40 48 32 49 33 51 35 50 34 62 42 63 43 62 42 50 34 55 37 66 44 54 36 66 44 55 37 67 45 68 46 56 38 69 47 57 39 69 47 56 38 67 45 60 40 66 44 60 40 67 45 61 41 63 43 68 46 62 42 69 47 62 42 68 46</p>
        </triangles>
      </mesh>
    </geometry>
    <geometry id="ID3-mesh" name="ID3">
      <mesh>
        <source id="ID3-mesh-positions">
          <float_array id="ID3-mesh-positions-array" count="396">12.94596 12.47298 0 12.94596 0.4729817 0.25 12.94596 0.4729817 0 12.94596 12.47298 0.25 12.94596 12.47298 0.25 12.94596 12.47298 0 12.94596 0.4729817 0.25 12.94596 0.4729817 0 12.94596 0.4729817 0.25 12.94596 12.47298 0.25 12.94596 0.4729817 0 12.94596 12.47298 0 0.4729817 0 0.25 0 12.47298 0.25 0 0.4729817 0.25 0.4729817 12.94596 0.25 1.774519 4.762881 0.25 3.259044 2.642759 0.25 5.604741 1.548943 0.25 12.47298 0 0.25 1.548943 7.341223 0.25 8.183082 1.774519 0.25 10.3032 3.259044 0.25 11.39702 5.604741 0.25 4.762881 11.17144 0.25 12.47298 12.94596 0.25 2.642759 9.686921 0.25 7.341223 11.39702 0.25 9.686921 10.3032 0.25 11.17144 8.183082 0.25 12.94596 0.4729817 0.25 12.94596 12.47298 0.25 12.94596 12.47298 0.25 12.94596 0.4729817 0.25 12.47298 12.94596 0.25 12.47298 0 0.25 11.39702 5.604741 0.25 11.17144 8.183082 0.25 9.686921 10.3032 0.25 7.341223 11.39702 0.25 4.762881 11.17144 0.25 1.548943 7.341223 0.25 0.4729817 12.94596 0.25 2.642759 9.686921 0.25 10.3032 3.259044 0.25 8.183082 1.774519 0.25 5.604741 1.548943 0.25 1.774519 4.762881 0.25 0.4729817 0 0.25 3.259044 2.642759 0.25 0 12.47298 0.25 0 0.4729817 0.25 0 0.4729817 0.25 0.4729817 0 0.25 12.47298 0 0.25 12.47298 12.94596 0.25 0.4729817 12.94596 0.25 0 12.47298 0.25 11.17144 8.183082 0.25 9.686921 10.3032 0.25 11.39702 5.604741 0.25 10.3032 3.259044 0.25 8.183082 1.774519 0.25 5.604741 1.548943 0.25 3.259044 2.642759 0.25 1.774519 4.762881 0.25 1.548943 7.341223 0.25 2.642759 9.686921 0.25 4.762881 11.17144 0.25 7.341223 11.39702 0.25 12.94596 0.4729817 0.25 12.47298 0 0 12.94596 0.4729817 0 12.47298 0 0.25 12.47298 0 0.25 12.94596 0.4729817 0.25 12.47298 0 0 12.94596 0.4729817 0 12.47298 0 0 12.47298 12.94596 0 12.94596 12.47298 0.25 12.94596 12.47298 0 12.47298 12.94596 0.25 12.47298 12.94596 0.25 12.47298 12.94596 0 12.94596 12.47298 0.25 12.94596 12.47298 0 12.47298 12.94596 0 0 0.4729817 0.25 0.4729817 0 0 0.4729817 0 0.25 0 0.4729817 0 0 0.4729817 0 0 0.4729817 0.25 0.4729817 0 0 0.4729817 0 0.25 0 0.4729817 0 0.4729817 0 0 12.47298 0 0.25 0.4729817 0 0 12.47298 0 0 0.4729817 0 0.25 0.4729817 0 0.25 12.47298 0 0.25 0.4729817 0 0 12.47298 0 0 0.4729817 12.94596 0.25 12.47298 12.94596 0 0.4729817 12.94596 0 12.47298 12.94596 0.25 12.47298 12.94596 0.25 0.4729817 12.94596 0.25 12.47298 12.94596 0 0.4729817 12.94596 0 0.4729817 12.94596 0 0.4729817 12.94596 0.25 0 12.47298 0 0 12.47298 0.25 0.4729817 12.94596 0 0.4729817 12.94596 0 0.4729817 12.94596 0.25 0 12.47298 0 0 12.47298 0.25 0 12.47298 0 0 12.47298 0.25 0 0.4729817 0 0 0.4729817 0.25 0 12.47298 0 0 12.47298 0 0 12.47298 0.25 0 0.4729817 0 0 0.4729817 0.25</float_array>
          <technique_common>
            <accessor source="#ID3-mesh-positions-array" count="132" stride="3">
              <param name="X" type="float"/>
              <param name="Y" type="float"/>
              <param name="Z" type="float"/>
            </accessor>
          </technique_common>
        </source>
        <source id="ID3-mesh-normals">
          <float_array id="ID3-mesh-normals-array" count="54">1 0 0 -1 0 0 0 0 1 0 0 1 -1.57903e-7 0 1 0 0 1 0 0 -1 0 0 -1 0.7071077 -0.7071059 0 -0.7071077 0.7071059 0 0.7071068 0.7071068 0 -0.7071068 -0.7071068 0 -0.7071068 -0.7071068 0 0.7071068 0.7071068 0 0 -1 0 0 1 0 -0.7071059 0.7071077 0 0.7071059 -0.7071077 0</float_array>
          <technique_common>
            <accessor source="#ID3-mesh-normals-array" count="18" stride="3">
              <param name="X" type="float"/>
              <param name="Y" type="float"/>
              <param name="Z" type="float"/>
            </accessor>
          </technique_common>
        </source>
        <vertices id="ID3-mesh-vertices">
          <input semantic="POSITION" source="#ID3-mesh-positions"/>
        </vertices>
        <lines count="36">
          <input semantic="VERTEX" source="#ID3-mesh-vertices" offset="0"/>
          <p>9 8 10 8 11 10 11 9 53 52 54 53 8 54 55 9 56 55 56 57 52 57 59 58 58 60 60 61 61 62 62 63 63 64 64 65 65 66 66 67 67 68 68 69 69 59 78 54 10 78 87 11 87 55 96 52 97 96 97 53 78 97 114 87 114 56 114 123 123 57 96 123</p>
        </lines>
        <triangles material="TrafficCone-material" count="72">
          <input semantic="VERTEX" source="#ID3-mesh-vertices" offset="0"/>
          <input semantic="NORMAL" source="#ID3-mesh-normals" offset="1"/>
          <p>0 0 1 0 2 0 1 0 0 0 3 0 4 1 5 1 6 1 7 1 6 1 5 1 12 2 13 2 14 2 13 2 12 2 15 2 15 3 12 3 16 3 16 2 12 2 17 2 17 2 12 2 18 2 18 2 12 2 19 2 15 4 16 4 20 4 18 2 19 2 21 2 21 2 19 2 22 2 22 2 19 2 23 2 15 2 24 2 25 2 24 2 15 2 26 2 26 2 15 2 20 2 25 2 24 2 27 2 25 2 27 2 28 2 25 2 28 2 29 2 25 2 29 2 23 2 25 2 23 2 19 2 25 5 19 5 30 5 25 2 30 2 31 2 32 6 33 6 34 6 33 6 35 6 34 6 35 6 36 6 34 6 36 6 37 6 34 6 37 6 38 6 34 6 38 6 39 6 34 6 39 6 40 6 34 6 41 6 42 6 43 6 43 6 42 6 40 6 34 6 40 6 42 6 36 6 35 6 44 6 44 6 35 6 45 6 45 6 35 6 46 6 41 6 47 6 42 6 35 6 48 6 46 6 46 6 48 6 49 6 49 6 48 6 47 6 47 7 48 7 42 7 42 6 48 6 50 6 51 6 50 6 48 6 70 8 71 8 72 8 71 8 70 8 73 8 74 9 75 9 76 9 77 9 76 9 75 9 79 10 80 10 81 10 80 10 79 10 82 10 83 11 84 11 85 11 86 11 85 11 84 11 88 12 89 12 90 12 89 12 88 12 91 12 92 13 93 13 94 13 95 13 94 13 93 13 98 14 99 14 100 14 99 14 98 14 101 14 102 15 103 15 104 15 105 15 104 15 103 15 106 15 107 15 108 15 107 15 106 15 109 15 110 14 111 14 112 14 113 14 112 14 111 14 115 16 116 16 117 16 116 16 115 16 118 16 119 17 120 17 121 17 122 17 121 17 120 17 124 1 125 1 126 1 125 1 124 1 127 1 128 0 129 0 130 0 131 0 130 0 129 0</p>
        </triangles>
      </mesh>
    </geometry>
  </library_geometries>
  <library_visual_scenes>
    <visual_scene id="Scene" name="Scene">
      <node id="SketchUp_001" name="SketchUp.001" type="NODE">
        <matrix sid="transform">0.0254 0 0 0 0 0.0254 0 0 0 0 0.0254 0 0 0 0 1</matrix>
        <instance_geometry url="#ID15-mesh" name="SketchUp.001">
          <bind_material>
            <technique_common>
              <instance_material symbol="TrafficCone-material" target="#TrafficCone-material"/>
              <instance_material symbol="edge_color2341520255-material" target="#edge_color2341520255-material"/>
              <instance_material symbol="edge_color000255-material" target="#edge_color000255-material"/>
            </technique_common>
          </bind_material>
        </instance_geometry>
      </node>
      <node id="SketchUp" name="SketchUp" type="NODE">
        <matrix sid="transform">0.0254 0 0 0 0 0.0254 0 0 0 0 0.0254 0 0 0 0 1</matrix>
        <instance_geometry url="#ID3-mesh" name="SketchUp">
          <bind_material>
            <technique_common>
              <instance_material symbol="TrafficCone-material" target="#TrafficCone-material"/>
              <instance_material symbol="edge_color2341520255-material" target="#edge_color2341520255-material"/>
            </technique_common>
          </bind_material>
        </instance_geometry>
      </node>
      <node id="Camera" name="Camera" type="NODE">
        <matrix sid="transform">0.6859207 -0.3240135 0.6515582 7.358891 0.7276763 0.3054208 -0.6141704 -6.925791 0 0.8953956 0.4452714 4.958309 0 0 0 1</matrix>
        <instance_camera url="#Camera-camera"/>
      </node>
    </visual_scene>
  </library_visual_scenes>
  <scene>
    <instance_visual_scene url="#Scene"/>
  </scene>
</COLLADA>