<?xml version="1.0" encoding="utf-8"?>
<COLLADA xmlns="http://www.collada.org/2005/11/COLLADASchema" version="1.4.1" xmlns:xsi="http://www.w3.org/2001/XMLSchema-instance">
  <asset>
    <contributor>
      <author>Blender User</author>
      <authoring_tool>Blender 4.4.3 commit date:2025-04-29, commit time:14:09, hash:802179c51ccc</authoring_tool>
    </contributor>
    <created>2025-08-08T16:24:10</created>
    <modified>2025-08-08T16:24:10</modified>
    <unit name="meter" meter="1"/>
    <up_axis>Z_UP</up_axis>
  </asset>
  <library_cameras>
    <camera id="skp_camera_Last_Saved_SketchUp_View-camera" name="skp_camera_Last_Saved_SketchUp_View">
      <optics>
        <technique_common>
          <perspective>
            <xfov sid="xfov">0</xfov>
            <aspect_ratio>1.777778</aspect_ratio>
            <znear sid="znear">1</znear>
            <zfar sid="zfar">1000</zfar>
          </perspective>
        </technique_common>
      </optics>
      <extra>
        <technique profile="blender">
          <shiftx sid="shiftx" type="float">0</shiftx>
          <shifty sid="shifty" type="float">0</shifty>
          <dof_distance sid="dof_distance" type="float">10</dof_distance>
        </technique>
      </extra>
    </camera>
    <camera id="Camera-camera" name="Camera">
      <optics>
        <technique_common>
          <perspective>
            <xfov sid="xfov">39.59775</xfov>
            <aspect_ratio>1.777778</aspect_ratio>
            <znear sid="znear">0.1</znear>
            <zfar sid="zfar">100</zfar>
          </perspective>
        </technique_common>
      </optics>
      <extra>
        <technique profile="blender">
          <shiftx sid="shiftx" type="float">0</shiftx>
          <shifty sid="shifty" type="float">0</shifty>
          <dof_distance sid="dof_distance" type="float">10</dof_distance>
        </technique>
      </extra>
    </camera>
  </library_cameras>
  <library_effects>
    <effect id="edge_color139209122255-effect">
      <profile_COMMON>
        <technique sid="common">
          <lambert>
            <emission>
              <color sid="emission">0 0 0 1</color>
            </emission>
            <diffuse>
              <color sid="diffuse">0 0 0 1</color>
            </diffuse>
            <index_of_refraction>
              <float sid="ior">1.5</float>
            </index_of_refraction>
          </lambert>
        </technique>
      </profile_COMMON>
    </effect>
    <effect id="tree_stvol-effect">
      <profile_COMMON>
        <technique sid="common">
          <lambert>
            <emission>
              <color sid="emission">0 0 0 1</color>
            </emission>
            <diffuse>
              <color sid="diffuse">0.2627451 0.1960784 0.172549 1</color>
            </diffuse>
            <index_of_refraction>
              <float sid="ior">1.5</float>
            </index_of_refraction>
          </lambert>
        </technique>
      </profile_COMMON>
    </effect>
    <effect id="material-effect">
      <profile_COMMON>
        <technique sid="common">
          <lambert>
            <emission>
              <color sid="emission">0 0 0 1</color>
            </emission>
            <diffuse>
              <color sid="diffuse">0.6705882 0.6901961 0.8 1</color>
            </diffuse>
            <index_of_refraction>
              <float sid="ior">1.5</float>
            </index_of_refraction>
          </lambert>
        </technique>
      </profile_COMMON>
    </effect>
    <effect id="edge_color675044255-effect">
      <profile_COMMON>
        <technique sid="common">
          <lambert>
            <emission>
              <color sid="emission">0 0 0 1</color>
            </emission>
            <diffuse>
              <color sid="diffuse">0 0 0 1</color>
            </diffuse>
            <index_of_refraction>
              <float sid="ior">1.5</float>
            </index_of_refraction>
          </lambert>
        </technique>
      </profile_COMMON>
    </effect>
  </library_effects>
  <library_images/>
  <library_materials>
    <material id="edge_color139209122255-material" name="edge_color139209122255">
      <instance_effect url="#edge_color139209122255-effect"/>
    </material>
    <material id="tree_stvol-material" name="tree_stvol">
      <instance_effect url="#tree_stvol-effect"/>
    </material>
    <material id="material-material" name="material">
      <instance_effect url="#material-effect"/>
    </material>
    <material id="edge_color675044255-material" name="edge_color675044255">
      <instance_effect url="#edge_color675044255-effect"/>
    </material>
  </library_materials>
  <library_geometries>
    <geometry id="ID40-mesh" name="ID40">
      <mesh>
        <source id="ID40-mesh-positions">
          <float_array id="ID40-mesh-positions-array" count="6">11.23295 11.23295 16.48258 11.23295 11.23295 16.20225</float_array>
          <technique_common>
            <accessor source="#ID40-mesh-positions-array" count="2" stride="3">
              <param name="X" type="float"/>
              <param name="Y" type="float"/>
              <param name="Z" type="float"/>
            </accessor>
          </technique_common>
        </source>
        <source id="ID40-mesh-normals">
          <float_array id="ID40-mesh-normals-array" count="0"/>
          <technique_common>
            <accessor source="#ID40-mesh-normals-array" count="0" stride="3">
              <param name="X" type="float"/>
              <param name="Y" type="float"/>
              <param name="Z" type="float"/>
            </accessor>
          </technique_common>
        </source>
        <vertices id="ID40-mesh-vertices">
          <input semantic="POSITION" source="#ID40-mesh-positions"/>
        </vertices>
        <lines count="1">
          <input semantic="VERTEX" source="#ID40-mesh-vertices" offset="0"/>
          <p>0 1</p>
        </lines>
      </mesh>
    </geometry>
    <geometry id="ID5-mesh" name="ID5">
      <mesh>
        <source id="ID5-mesh-positions">
          <float_array id="ID5-mesh-positions-array" count="720">0.01931762 0.7136612 0 0.01931762 0.4201971 0 0 0.5669291 0 0.07595407 0.8503937 0 0.07595407 0.2834646 0 0.1660497 0.9678086 0 0.1660497 0.1660497 0 0.2834646 1.057904 0 0.2834646 0.07595407 0 0.4201971 1.114541 0 0.4201971 0.01931762 0 0.5669291 1.133858 0 0.5669291 0 0 0.7136612 1.114541 0 0.7136612 0.01931762 0 0.8503937 1.057904 0 0.8503937 0.07595407 0 0.9678086 0.9678086 0 0.9678086 0.1660497 0 1.057904 0.8503937 0 1.057904 0.2834646 0 1.114541 0.7136612 0 1.114541 0.4201971 0 1.133858 0.5669291 0 1.133858 0.5669291 0 1.114541 0.7136612 0 1.114541 0.4201971 0 1.057904 0.2834646 0 1.057904 0.8503937 0 0.9678086 0.1660497 0 0.9678086 0.9678086 0 0.8503937 0.07595407 0 0.8503937 1.057904 0 0.7136612 0.01931762 0 0.7136612 1.114541 0 0.5669291 0 0 0.5669291 1.133858 0 0.4201971 0.01931762 0 0.4201971 1.114541 0 0.2834646 0.07595407 0 0.2834646 1.057904 0 0.1660497 0.1660497 0 0.1660497 0.9678086 0 0.07595407 0.2834646 0 0.07595407 0.8503937 0 0.01931762 0.4201971 0 0.01931762 0.7136612 0 0 0.5669291 0 1.057904 0.2834646 0 1.114541 0.4201971 0 0.9678086 0.1660497 0 0.8503937 0.07595407 0 0.7136612 0.01931762 0 0.5669291 0 0 0.4201971 0.01931762 0 0.2834646 0.07595407 0 0.1660497 0.1660497 0 0.07595407 0.2834646 0 0.01931762 0.4201971 0 0 0.5669291 0 0.01931762 0.7136612 0 0.07595407 0.8503937 0 0.1660497 0.9678086 0 0.2834646 1.057904 0 0.4201971 1.114541 0 0.5669291 1.133858 0 0.7136612 1.114541 0 0.8503937 1.057904 0 0.9678086 0.9678086 0 1.057904 0.8503937 0 1.114541 0.7136612 0 1.133858 0.5669291 0 1.114541 0.4201971 0 0.5788107 0.5600693 18.85433 1.057904 0.2834646 0 0.5801813 0.5633782 18.85433 0.5801813 0.5633782 18.85433 1.114541 0.4201971 0 0.5788107 0.5600693 18.85433 1.057904 0.2834646 0 0.5801813 0.5633782 18.85433 0.5788107 0.5600693 18.85433 0.5766304 0.5572279 18.85433 0.9678086 0.1660497 0 0.5766304 0.5572279 18.85433 0.9678086 0.1660497 0 0.5766304 0.5572279 18.85433 0.8503937 0.07595407 0 0.573789 0.5550475 18.85433 0.573789 0.5550475 18.85433 0.8503937 0.07595407 0 0.573789 0.5550475 18.85433 0.7136612 0.01931762 0 0.57048 0.5536769 18.85433 0.57048 0.5536769 18.85433 0.7136612 0.01931762 0 0.57048 0.5536769 18.85433 0.5669291 0 0 0.5669291 0.5532094 18.85433 0.5669291 0.5532094 18.85433 0.5669291 0 0 0.5669291 0.5532094 18.85433 0.4201971 0.01931762 0 0.5633782 0.5536769 18.85433 0.5633782 0.5536769 18.85433 0.4201971 0.01931762 0 0.5633782 0.5536769 18.85433 0.2834646 0.07595407 0 0.5600693 0.5550475 18.85433 0.5600693 0.5550475 18.85433 0.2834646 0.07595407 0 0.5600693 0.5550475 18.85433 0.1660497 0.1660497 0 0.5572279 0.5572279 18.85433 0.5572279 0.5572279 18.85433 0.1660497 0.1660497 0 0.5572279 0.5572279 18.85433 0.07595407 0.2834646 0 0.5550475 0.5600693 18.85433 0.5550475 0.5600693 18.85433 0.07595407 0.2834646 0 0.5550475 0.5600693 18.85433 0.01931762 0.4201971 0 0.5536769 0.5633782 18.85433 0.5536769 0.5633782 18.85433 0.01931762 0.4201971 0 0.5536769 0.5633782 18.85433 0 0.5669291 0 0.5532094 0.5669291 18.85433 0.5532094 0.5669291 18.85433 0 0.5669291 0 0.5532094 0.5669291 18.85433 0.5536769 0.57048 18.85433 0.01931762 0.7136612 0 0.01931762 0.7136612 0 0.5536769 0.57048 18.85433 0.5536769 0.57048 18.85433 0.5550475 0.573789 18.85433 0.07595407 0.8503937 0 0.07595407 0.8503937 0 0.5550475 0.573789 18.85433 0.5550475 0.573789 18.85433 0.5572279 0.5766304 18.85433 0.1660497 0.9678086 0 0.1660497 0.9678086 0 0.5572279 0.5766304 18.85433 0.5572279 0.5766304 18.85433 0.2834646 1.057904 0 0.5600693 0.5788107 18.85433 0.5600693 0.5788107 18.85433 0.2834646 1.057904 0 0.5600693 0.5788107 18.85433 0.4201971 1.114541 0 0.5633782 0.5801813 18.85433 0.5633782 0.5801813 18.85433 0.4201971 1.114541 0 0.5633782 0.5801813 18.85433 0.5669291 1.133858 0 0.5669291 0.5806488 18.85433 0.5669291 0.5806488 18.85433 0.5669291 1.133858 0 0.5669291 0.5806488 18.85433 0.7136612 1.114541 0 0.57048 0.5801813 18.85433 0.57048 0.5801813 18.85433 0.7136612 1.114541 0 0.57048 0.5801813 18.85433 0.8503937 1.057904 0 0.573789 0.5788107 18.85433 0.573789 0.5788107 18.85433 0.8503937 1.057904 0 0.573789 0.5788107 18.85433 0.9678086 0.9678086 0 0.5766304 0.5766304 18.85433 0.5766304 0.5766304 18.85433 0.9678086 0.9678086 0 0.5766304 0.5766304 18.85433 1.057904 0.8503937 0 0.5788107 0.573789 18.85433 1.057904 0.8503937 0 0.5788107 0.573789 18.85433 0.5788107 0.573789 18.85433 1.114541 0.7136612 0 0.5801813 0.57048 18.85433 1.114541 0.7136612 0 0.5801813 0.57048 18.85433 0.5801813 0.57048 18.85433 0.5806488 0.5669291 18.85433 1.133858 0.5669291 0 0.5806488 0.5669291 18.85433 1.133858 0.5669291 0 0.5806488 0.5669291 18.85433 0.5536769 0.5633782 18.85433 0.5536769 0.57048 18.85433 0.5532094 0.5669291 18.85433 0.5550475 0.5600693 18.85433 0.5550475 0.573789 18.85433 0.5572279 0.5572279 18.85433 0.5572279 0.5766304 18.85433 0.5600693 0.5550475 18.85433 0.5600693 0.5788107 18.85433 0.5633782 0.5536769 18.85433 0.5633782 0.5801813 18.85433 0.5669291 0.5532094 18.85433 0.5669291 0.5806488 18.85433 0.57048 0.5536769 18.85433 0.57048 0.5801813 18.85433 0.573789 0.5550475 18.85433 0.573789 0.5788107 18.85433 0.5766304 0.5572279 18.85433 0.5766304 0.5766304 18.85433 0.5788107 0.5600693 18.85433 0.5788107 0.573789 18.85433 0.5801813 0.5633782 18.85433 0.5801813 0.57048 18.85433 0.5806488 0.5669291 18.85433 0.5806488 0.5669291 18.85433 0.5801813 0.5633782 18.85433 0.5801813 0.57048 18.85433 0.5788107 0.573789 18.85433 0.5788107 0.5600693 18.85433 0.5766304 0.5766304 18.85433 0.5766304 0.5572279 18.85433 0.573789 0.5788107 18.85433 0.573789 0.5550475 18.85433 0.57048 0.5801813 18.85433 0.57048 0.5536769 18.85433 0.5669291 0.5806488 18.85433 0.5669291 0.5532094 18.85433 0.5633782 0.5801813 18.85433 0.5633782 0.5536769 18.85433 0.5600693 0.5788107 18.85433 0.5600693 0.5550475 18.85433 0.5572279 0.5766304 18.85433 0.5572279 0.5572279 18.85433 0.5550475 0.573789 18.85433 0.5550475 0.5600693 18.85433 0.5536769 0.57048 18.85433 0.5536769 0.5633782 18.85433 0.5532094 0.5669291 18.85433</float_array>
          <technique_common>
            <accessor source="#ID5-mesh-positions-array" count="240" stride="3">
              <param name="X" type="float"/>
              <param name="Y" type="float"/>
              <param name="Z" type="float"/>
            </accessor>
          </technique_common>
        </source>
        <source id="ID5-mesh-normals">
          <float_array id="ID5-mesh-normals-array" count="456">0 0 -1 0.9655126 -0.2586993 0.02932864 0.8656453 -0.4997982 0.02932852 0.8656564 -0.4997789 0.02932858 0.9655125 -0.2587 0.02932834 0.7068027 -0.7068026 0.02932834 0.7068032 -0.7068021 0.02932858 0.4997781 -0.8656569 0.02932858 0.4997892 -0.8656505 0.0293284 0.2587001 -0.9655124 0.02932858 0.2587069 -0.9655106 0.02932888 -8.04776e-6 -0.9995698 0.02932858 1.65127e-6 -0.9995699 0.02932888 -0.2587154 -0.9655082 0.02932858 -0.2587133 -0.9655089 0.02932864 -0.4997918 -0.865649 0.02932858 -0.4998002 -0.865644 0.02932894 -0.7068081 -0.7067971 0.02932858 -0.7068023 -0.706803 0.0293287 -0.8656569 -0.499778 0.02932858 -0.8656424 -0.499803 0.02932846 -0.9655125 -0.2586998 0.02932858 -0.9655088 -0.2587137 0.02932852 -0.9995699 0 0.02932858 -0.9995699 0 0.0293287 -0.9655104 0.2587075 0.02932864 -0.9655125 0.2586997 0.02932858 -0.8656454 0.4997978 0.02932894 -0.8656569 0.4997779 0.02932858 -0.706795 0.7068102 0.02932888 -0.7068021 0.7068031 0.02932858 -0.499779 0.8656564 0.02932858 -0.4997892 0.8656504 0.0293287 -0.2586993 0.9655126 0.02932864 -0.2587103 0.9655097 0.02932858 7.91826e-6 0.9995698 0.02932858 1.76581e-7 0.9995699 0.0293284 0.2587149 0.9655085 0.02932864 0.2586992 0.9655126 0.02932864 0.4997931 0.8656483 0.02932858 0.4997707 0.8656611 0.02932846 0.7068085 0.7067968 0.02932858 0.7067924 0.7068129 0.02932846 0.8656564 0.4997789 0.02932858 0.8656486 0.4997923 0.02932912 0.9655106 0.258707 0.02932864 0.9655141 0.2586938 0.02932852 0.9995699 2.38622e-7 0.0293278 0.9995698 7.93744e-6 0.02932858 0 0 1 5.84396e-5 0 1 5.85992e-5 0 1 5.8149e-5 0 1 -2.87599e-5 0 1 -2.93202e-5 0 1 -2.96283e-5 0 1 -6.11827e-5 0 1 -6.1128e-5 0 1 -6.12695e-5 0 1 1.38213e-4 0 1 1.38253e-4 0 1 1.38153e-4 0 1 1.73746e-4 0 1 1.73831e-4 0 1 1.73621e-4 0 1 -7.84941e-5 0 1 -7.83852e-5 0 1 -7.86524e-5 0 1 -1.53833e-4 0 1 -1.53954e-4 0 1 -1.54037e-4 0 1 -8.07102e-5 0 1 -8.06886e-5 0 1 -8.07424e-5 0 1 9.19355e-6 0 1 8.9744e-6 0 1 8.82777e-6 0 1 1.05815e-4 0 1 1.05847e-4 0 1 1.05766e-4 0 1 6.25359e-5 0 1 6.26181e-5 0 1 6.23865e-5 0 1 -0.9655125 0.2587 -0.02932834 -0.9655126 0.2586993 -0.02932864 -0.8656453 0.4997982 -0.02932852 -0.8656564 0.4997789 -0.02932858 -0.7068036 0.7068017 -0.02932828 -0.7068032 0.7068021 -0.02932858 -0.4997879 0.8656513 -0.02932846 -0.4997781 0.8656569 -0.02932858 -0.2587021 0.9655118 -0.02932894 -0.2587001 0.9655124 -0.02932858 -1.64173e-6 0.9995699 -0.02932888 8.04776e-6 0.9995698 -0.02932858 0.2587085 0.9655102 -0.0293287 0.2587154 0.9655082 -0.02932858 0.499799 0.8656448 -0.02932906 0.4997918 0.865649 -0.02932858 0.7068028 0.7068024 -0.02932882 0.7068081 0.7067971 -0.02932858 0.8656424 0.4998031 -0.02932864 0.8656569 0.499778 -0.02932858 0.9655089 0.2587134 -0.02932864 0.9655125 0.2586998 -0.02932858 0.9995699 0 -0.0293287 0.9995699 0 -0.02932858 0.9655125 -0.2586997 -0.02932858 0.9655106 -0.2587069 -0.02932858 0.8656569 -0.4997779 -0.02932858 0.8656458 -0.4997972 -0.02932888 0.7068021 -0.7068031 -0.02932858 0.7067947 -0.7068105 -0.02932888 0.4997866 -0.8656519 -0.02932876 0.499779 -0.8656564 -0.02932858 0.2587056 -0.965511 -0.02932864 0.2586993 -0.9655126 -0.02932864 -1.81353e-7 -0.9995699 -0.0293284 -7.91826e-6 -0.9995698 -0.02932858 -0.2586945 -0.965514 -0.02932876 -0.2587149 -0.9655085 -0.02932864 -0.4997681 -0.8656627 -0.02932852 -0.4997931 -0.8656483 -0.02932858 -0.7067918 -0.7068135 -0.02932858 -0.7068085 -0.7067968 -0.02932858 -0.8656564 -0.4997789 -0.02932858 -0.8656486 -0.4997924 -0.02932941 -0.9655106 -0.258707 -0.02932864 -0.9655141 -0.2586935 -0.0293287 -0.9995699 -2.38622e-7 -0.0293278 -0.9995698 -7.93744e-6 -0.02932858 -2.96271e-5 0 -1 -2.87587e-5 0 -1 -2.90666e-5 0 -1 2.78375e-5 0 -1 2.82764e-5 0 -1 2.8107e-5 0 -1 -9.16934e-6 0 -1 -9.02283e-6 0 -1 -8.80365e-6 0 -1 1.97538e-5 0 -1 2.0186e-5 0 -1 2.08145e-5 0 -1 -1.54049e-4 0 -1 -1.53845e-4 0 -1 -1.53928e-4 0 -1 8.77896e-6 0 -1 9.14466e-6 0 -1 8.99803e-6 0 -1 -2.17787e-5 0 -1 -2.1128e-5 0 -1 -2.13792e-5 0 -1</float_array>
          <technique_common>
            <accessor source="#ID5-mesh-normals-array" count="152" stride="3">
              <param name="X" type="float"/>
              <param name="Y" type="float"/>
              <param name="Z" type="float"/>
            </accessor>
          </technique_common>
        </source>
        <vertices id="ID5-mesh-vertices">
          <input semantic="POSITION" source="#ID5-mesh-positions"/>
        </vertices>
        <lines count="72">
          <input semantic="VERTEX" source="#ID5-mesh-vertices" offset="0"/>
          <p>49 48 48 50 50 51 51 52 52 53 53 54 54 55 55 56 56 57 57 58 58 59 59 60 60 61 61 62 62 63 63 64 64 65 65 66 66 67 67 68 68 69 69 70 70 71 71 49 80 49 80 81 81 48 81 86 86 50 86 91 91 51 91 96 96 52 96 101 101 53 101 106 106 54 106 111 111 55 111 116 116 56 116 121 121 57 121 126 126 58 126 131 131 59 131 136 136 60 136 141 141 61 141 146 146 62 146 151 151 63 151 156 156 64 156 161 161 65 161 166 166 66 166 171 171 67 171 176 176 68 181 69 176 181 186 70 181 186 191 71 186 191 191 80</p>
        </lines>
        <triangles material="tree_stvol-material" count="92">
          <input semantic="VERTEX" source="#ID5-mesh-vertices" offset="0"/>
          <input semantic="NORMAL" source="#ID5-mesh-normals" offset="1"/>
          <p>0 0 1 0 2 0 1 0 0 0 3 0 1 0 3 0 4 0 4 0 3 0 5 0 4 0 5 0 6 0 6 0 5 0 7 0 6 0 7 0 8 0 8 0 7 0 9 0 8 0 9 0 10 0 10 0 9 0 11 0 10 0 11 0 12 0 12 0 11 0 13 0 12 0 13 0 14 0 14 0 13 0 15 0 14 0 15 0 16 0 16 0 15 0 17 0 16 0 17 0 18 0 18 0 17 0 19 0 18 0 19 0 20 0 20 0 19 0 21 0 20 0 21 0 22 0 22 0 21 0 23 0 72 1 73 2 74 3 73 2 72 1 75 4 74 3 82 5 83 6 82 5 74 3 73 2 82 5 87 7 83 6 87 7 82 5 88 8 88 8 92 9 87 7 92 9 88 8 93 10 93 10 97 11 92 9 97 11 93 10 98 12 98 12 102 13 97 11 102 13 98 12 103 14 103 14 107 15 102 13 107 15 103 14 108 16 108 16 112 17 107 15 112 17 108 16 113 18 113 18 117 19 112 17 117 19 113 18 118 20 118 20 122 21 117 19 122 21 118 20 123 22 123 22 127 23 122 21 127 23 123 22 128 24 132 25 127 23 128 24 127 23 132 25 133 26 137 27 133 26 132 25 133 26 137 27 138 28 142 29 138 28 137 27 138 28 142 29 143 30 142 29 147 31 143 30 147 31 142 29 148 32 148 32 152 33 147 31 152 33 148 32 153 34 153 34 157 35 152 33 157 35 153 34 158 36 158 36 162 37 157 35 162 37 158 36 163 38 163 38 167 39 162 37 167 39 163 38 168 40 168 40 172 41 167 39 172 41 168 40 173 42 177 43 173 42 178 44 173 42 177 43 172 41 182 45 178 44 183 46 178 44 182 45 177 43 182 45 187 47 188 48 187 47 182 45 183 46 188 48 75 4 72 1 75 4 188 48 187 47 192 49 193 49 194 49 193 49 192 49 195 49 193 49 195 49 196 49 196 50 195 51 197 52 196 53 197 54 198 55 198 56 197 57 199 58 198 49 199 49 200 49 200 59 199 60 201 61 200 49 201 49 202 49 202 62 201 63 203 64 202 49 203 49 204 49 204 65 203 66 205 67 204 68 205 69 206 70 206 71 205 72 207 73 206 74 207 75 208 76 208 77 207 78 209 79 208 49 209 49 210 49 210 80 209 81 211 82 210 49 211 49 212 49 212 49 211 49 213 49 212 49 213 49 214 49 214 49 213 49 215 49</p>
        </triangles>
        <triangles material="material-material" count="92">
          <input semantic="VERTEX" source="#ID5-mesh-vertices" offset="0"/>
          <input semantic="NORMAL" source="#ID5-mesh-normals" offset="1"/>
          <p>24 49 25 49 26 49 26 49 25 49 27 49 25 49 28 49 27 49 27 49 28 49 29 49 28 49 30 49 29 49 29 49 30 49 31 49 30 49 32 49 31 49 31 49 32 49 33 49 32 49 34 49 33 49 33 49 34 49 35 49 34 49 36 49 35 49 35 49 36 49 37 49 36 49 38 49 37 49 37 49 38 49 39 49 38 49 40 49 39 49 39 49 40 49 41 49 40 49 42 49 41 49 41 49 42 49 43 49 42 49 44 49 43 49 43 49 44 49 45 49 44 49 46 49 45 49 47 49 45 49 46 49 76 83 77 84 78 85 79 86 78 85 77 84 78 85 79 86 84 87 85 88 84 87 79 86 89 89 84 87 90 90 85 88 90 90 84 87 94 91 89 89 95 92 90 90 95 92 89 89 99 93 94 91 100 94 95 92 100 94 94 91 104 95 99 93 105 96 100 94 105 96 99 93 109 97 104 95 110 98 105 96 110 98 104 95 114 99 109 97 115 100 110 98 115 100 109 97 119 101 114 99 120 102 115 100 120 102 114 99 124 103 119 101 125 104 120 102 125 104 119 101 129 105 124 103 130 106 125 104 130 106 124 103 134 107 135 108 130 106 129 105 130 106 135 108 139 109 140 110 134 107 135 108 134 107 140 110 144 111 145 112 139 109 140 110 139 109 145 112 149 113 145 112 150 114 144 111 150 114 145 112 154 115 149 113 155 116 150 114 155 116 149 113 159 117 154 115 160 118 155 116 160 118 154 115 164 119 159 117 165 120 160 118 165 120 159 117 169 121 164 119 170 122 165 120 170 122 164 119 174 123 169 121 175 124 170 122 175 124 169 121 175 124 179 125 174 123 180 126 174 123 179 125 179 125 184 127 180 126 185 128 180 126 184 127 185 128 184 127 189 129 190 130 189 129 184 127 189 129 190 130 76 83 77 84 76 83 190 130 216 0 217 0 218 0 218 0 217 0 219 0 217 0 220 0 219 0 219 0 220 0 221 0 220 131 222 132 221 133 221 0 222 0 223 0 222 134 224 135 223 136 223 137 224 138 225 139 224 0 226 0 225 0 225 140 226 141 227 142 226 0 228 0 227 0 227 0 228 0 229 0 228 143 230 144 229 145 229 0 230 0 231 0 230 146 232 147 231 148 231 0 232 0 233 0 232 149 234 150 233 151 233 0 234 0 235 0 234 0 236 0 235 0 235 0 236 0 237 0 236 0 238 0 237 0 239 0 237 0 238 0</p>
        </triangles>
      </mesh>
    </geometry>
  </library_geometries>
  <library_visual_scenes>
    <visual_scene id="Scene" name="Scene">
      <node id="SketchUp" name="SketchUp" type="NODE">
        <matrix sid="transform">0.0254 0 0 -0.2811789 0 0.0254 0 -0.2675517 0 0 0.0254 0 0 0 0 1</matrix>
        <node id="skp_camera_Last_Saved_SketchUp_View" name="skp_camera_Last_Saved_SketchUp_View" type="NODE">
          <matrix sid="transform">-0.2798138 0.4711098 -0.8365166 -27.82866 -0.9600543 -0.137308 0.2438079 22.63802 -7.99058e-8 0.8713221 0.4907116 38.53421 0 0 0 1</matrix>
          <instance_camera url="#skp_camera_Last_Saved_SketchUp_View-camera"/>
        </node>
        <node id="instance_0" name="instance_0" type="NODE">
          <matrix sid="transform">-0.1640584 -0.3120096 0.1377935 11.32884 0.2858753 -0.1849555 -0.2007901 10.38476 0.1517962 0.01110983 0.5270692 7.917256 0 0 0 1</matrix>
          <instance_geometry url="#ID5-mesh" name="instance_0">
            <bind_material>
              <technique_common>
                <instance_material symbol="tree_stvol-material" target="#tree_stvol-material"/>
                <instance_material symbol="material-material" target="#material-material"/>
                <instance_material symbol="edge_color675044255-material" target="#edge_color675044255-material"/>
              </technique_common>
            </bind_material>
          </instance_geometry>
        </node>
        <node id="instance_1" name="instance_1" type="NODE">
          <matrix sid="transform">1 0 0 10.51012 0 1 0 9.971376 0 0 1.0858 0 0 0 0 1</matrix>
          <instance_geometry url="#ID5-mesh" name="instance_1">
            <bind_material>
              <technique_common>
                <instance_material symbol="tree_stvol-material" target="#tree_stvol-material"/>
                <instance_material symbol="material-material" target="#material-material"/>
                <instance_material symbol="edge_color675044255-material" target="#edge_color675044255-material"/>
              </technique_common>
            </bind_material>
          </instance_geometry>
        </node>
        <node id="instance_2" name="instance_2" type="NODE">
          <matrix sid="transform">0.2782068 -0.003520962 -0.239508 10.84167 -7.24944e-4 0.3061296 -0.01868194 10.33117 0.1281255 0.009377385 0.5199527 6.835434 0 0 0 1</matrix>
          <instance_geometry url="#ID5-mesh" name="instance_2">
            <bind_material>
              <technique_common>
                <instance_material symbol="tree_stvol-material" target="#tree_stvol-material"/>
                <instance_material symbol="material-material" target="#material-material"/>
                <instance_material symbol="edge_color675044255-material" target="#edge_color675044255-material"/>
              </technique_common>
            </bind_material>
          </instance_geometry>
        </node>
        <node id="instance_3" name="instance_3" type="NODE">
          <matrix sid="transform">-0.1758927 0.3359422 0.1080685 11.06115 -0.3028299 -0.1888385 0.226165 10.80002 0.1612834 0.01180418 0.5425107 5.023394 0 0 0 1</matrix>
          <instance_geometry url="#ID5-mesh" name="instance_3">
            <bind_material>
              <technique_common>
                <instance_material symbol="tree_stvol-material" target="#tree_stvol-material"/>
                <instance_material symbol="material-material" target="#material-material"/>
                <instance_material symbol="edge_color675044255-material" target="#edge_color675044255-material"/>
              </technique_common>
            </bind_material>
          </instance_geometry>
        </node>
        <node id="instance_4_001" name="instance_4.001" type="NODE">
          <matrix sid="transform">-0.7857962 -0.625317 -4.22234e-9 26.98198 0.6259576 -0.7849921 3.30764e-9 12.25742 4.88971e-9 3.97741e-11 -1.101976 27.50798 0 0 0 1</matrix>
          <instance_geometry url="#ID40-mesh" name="instance_4.001">
            <bind_material>
              <technique_common>
                <instance_material symbol="edge_color139209122255-material" target="#edge_color139209122255-material"/>
              </technique_common>
            </bind_material>
          </instance_geometry>
        </node>
      </node>
      <node id="Camera" name="Camera" type="NODE">
        <matrix sid="transform">0.6859207 -0.3240135 0.6515582 7.358891 0.7276763 0.3054208 -0.6141704 -6.925791 0 0.8953956 0.4452714 4.958309 0 0 0 1</matrix>
        <instance_camera url="#Camera-camera"/>
      </node>
    </visual_scene>
  </library_visual_scenes>
  <scene>
    <instance_visual_scene url="#Scene"/>
  </scene>
</COLLADA>